PathFileType	4	(X/Y/Z)	2_2_66_p1_0-535_filt_butterworth.trc
DataRate	CameraRate	NumFrames	NumMarkers	Units	OrigDataRate	OrigDataStartFrame	OrigNumFrames
60.0	60.0	5	27	m	60.0	200	535
Frame#	Time	RHip			RKnee			RAnkle			RBigToe			RSmallToe			RHeel			LHip			LKnee			LAnkle			LBigToe			LSmallToe			LHeel			Neck			Head			Nose			RShoulder			RElbow			RWrist			RThumb			RIndex			RPinky			LShoulder			LElbow			LWrist			LThumb			LIndex			LPinky			
		X1	Y1	Z1	X2	Y2	Z2	X3	Y3	Z3	X4	Y4	Z4	X5	Y5	Z5	X6	Y6	Z6	X7	Y7	Z7	X8	Y8	Z8	X9	Y9	Z9	X10	Y10	Z10	X11	Y11	Z11	X12	Y12	Z12	X13	Y13	Z13	X14	Y14	Z14	X15	Y15	Z15	X16	Y16	Z16	X17	Y17	Z17	X18	Y18	Z18	X19	Y19	Z19	X20	Y20	Z20	X21	Y21	Z21	X22	Y22	Z22	X23	Y23	Z23	X24	Y24	Z24	X25	Y25	Z25	X26	Y26	Z26	X27	Y27	Z27	
200	3.333333333333333	0.37980258691751734	0.7775295079065918	0.6772099905825062	0.34246535005443646	0.2749973393751649	0.7931424772002055	0.31609787378706755	-0.14955635344595863	0.8959365967442638	0.3149135513633693	-0.1429858272448204	0.6579137902622083	0.3754614526313552	-0.19485303777243754	0.7524885890716821	0.2860167418811816	-0.19849002648186756	0.9187231392322319	0.17050847028040053	0.8012149908030974	0.6495272540318162	0.1190720911164609	0.29344091773786085	0.7414909536347205	0.07509887803745316	-0.13393096965643358	0.8246031794764659	0.11041779472660612	-0.17589830451986765	0.7028931139529968	0.04061865031329276	-0.14112571666051424	0.6849922142041014	0.0793095332160674	-0.23642786453821915	0.9407799638692398	0.318370831216297	1.4938778825554533	0.7157765545349734	0.3305532241634366	1.7439915742759113	0.6768972622670749	0.32557347178423746	1.6292867770055839	0.6413437001432813	0.4881746563784938	1.3625684384847137	0.7231209024708316	0.5143404612175286	1.0433547246270365	0.741167551732804	0.4827194168592851	0.7592624226564438	0.6464033465885253	0.3941924437956593	0.6437977822075938	0.6474679742708424	0.4220872337173228	0.6345758404069446	0.6241846611842039	0.4723454953011844	0.6333440501868677	0.6434616620565559	0.16016881322836762	1.396117565271251	0.7465433307044945	0.07863550364453542	1.0966195959520115	0.7336203459793027	0.09376821658599319	0.8128219045652607	0.6328682079206751	0.1569248027406504	0.7084759018812716	0.6178305494985314	0.12339704162456933	0.6969849195410452	0.556877330881886	0.06804271609772011	0.6905686437694204	0.6294133325467235	
201	3.35	0.3797478501571205	0.7773515807398856	0.6772228172385728	0.3425203527696309	0.275110999765067	0.7931439507598209	0.31620066690502086	-0.14990933274742194	0.8958436291217047	0.3149142651412336	-0.14300047345468167	0.6579270841162855	0.3755798904382235	-0.19491192574161473	0.7525390523715844	0.28624733169880373	-0.1986549247207	0.9190829267729151	0.17035367644690305	0.801307561827442	0.649877686539486	0.11945158675862622	0.2931538434344981	0.742306149900782	0.07504642964829468	-0.1337279041686369	0.8246126807251619	0.11017886913923894	-0.17450745960493066	0.7013990082393952	0.04054395117530585	-0.14084783061721198	0.6844341847892397	0.0791562121404655	-0.23643433505406952	0.9411491750587954	0.3192440556044839	1.4931619057976284	0.7158424585395149	0.33155064360214026	1.74464492128702	0.6770087759505543	0.32597494883913014	1.6292339508352371	0.6415015544186872	0.48847755607486243	1.3618364584258293	0.7239498437711653	0.5142667708574508	1.043372879544921	0.7414247438744873	0.48276108294052866	0.7592649804788033	0.646293410396447	0.3942256662606724	0.6437603311097808	0.6473098817225411	0.4223399544373555	0.6346079195480006	0.6235716289582891	0.4723322759993709	0.632939945546212	0.6431531037902778	0.16027790614015497	1.396121289308387	0.7463116941402443	0.07861260509453208	1.0958440267936314	0.7334424310686696	0.09410730891396338	0.8131371506564276	0.6318406675289665	0.15771716497429894	0.7083777385257612	0.6181417846002211	0.12373217325597233	0.6967475902905143	0.5561082088122081	0.06811758526452212	0.6905115479451691	0.6295377202159762	
202	3.3666666666666667	0.3797022473418118	0.7772145852860016	0.6772115158163162	0.3425721250748703	0.27526011487626406	0.7931059556512587	0.31610680414591186	-0.15025668839397816	0.8956397946303857	0.31491932880842965	-0.14300180322067363	0.6578997789628568	0.3756821620923638	-0.19496367983154425	0.7525548406445184	0.28646423930254605	-0.1988578119810473	0.9194524844957839	0.17024807963908226	0.8013547465523501	0.6501056425747642	0.1197621852243249	0.2929564634000775	0.7429239294280519	0.07504953629146319	-0.1336988244131338	0.8247760178886376	0.10985489866601754	-0.17283242797812612	0.6990250118885506	0.04048658018159937	-0.14101645310476807	0.6837524002865922	0.07868884987768549	-0.23684367577391616	0.942191655102662	0.32042408304335	1.4922151683823457	0.7150868517662823	0.3328286353243425	1.7451909534302743	0.676952177174913	0.32702456467652485	1.6293165003877494	0.6416489889674487	0.48896665211411494	1.3613212492064917	0.7255021331822984	0.5143741683503105	1.0433491710009504	0.7410982838489023	0.4827956688659255	0.7592609521633602	0.6461673858821699	0.39459218121183737	0.6441064675277709	0.64690022429435	0.42236338874669344	0.6344335122597882	0.6235683802647862	0.47231853516817823	0.6324424573184748	0.6427991817726488	0.16074977714589828	1.3961775346352294	0.7452510322394812	0.0786408693654801	1.0948342493962837	0.7332037844811247	0.0941064975045746	0.8132066836374533	0.6315270959079163	0.1583553332244067	0.7083029139267076	0.6183684292025187	0.12385643158249582	0.6962587055961013	0.556050246619079	0.0682048895570063	0.6903366829041258	0.6296278225222194	
203	3.3833333333333333	0.37964755740745	0.7771217228039996	0.6771660527319384	0.34261062914974677	0.2753895535803693	0.7930527846730543	0.3158664871581862	-0.15056255927966844	0.8953699893705539	0.3149278069845657	-0.14299031393305017	0.657834424100625	0.3756022386010383	-0.19497336696909717	0.752465920341945	0.28663087891689165	-0.19900391876869156	0.9196728154880195	0.17020468801851577	0.8013714075896337	0.6501879038769751	0.11998918186030051	0.29286541585548287	0.7433013144273805	0.07512140869155542	-0.13389142853959987	0.8249602845314887	0.10950725510761988	-0.17106246482597384	0.6961001852972519	0.04047035306955775	-0.14161660021719177	0.683229555337725	0.077953272658252	-0.23765165083813417	0.9438453915268387	0.3217794094064139	1.4911429638558056	0.7135393151296863	0.3345638807671835	1.745379774763354	0.6771076068750715	0.32869047882253627	1.6293750838704864	0.641789994665249	0.48958416899586343	1.3608424495020597	0.7275288787679619	0.5147711714946893	1.0432430477951968	0.7398441986543862	0.4828194627646277	0.7592473908731965	0.6460510526742698	0.39520046865944336	0.6448429423560744	0.6458034435297366	0.42211422208864824	0.6342713237032889	0.6241024961099215	0.4723309265475033	0.6318260655471596	0.6424287832463391	0.16156020137418658	1.3962704614616785	0.7433806062793082	0.07871016869866018	1.0937567867846365	0.732950100612233	0.09395685320405833	0.8131170963227147	0.6316988476781259	0.15875220200599416	0.7082724775439966	0.6184720884869984	0.12388068413629906	0.6960325584521198	0.5564483507378369	0.06828983307653055	0.6901797216957714	0.6296781624508361	
204	3.4	0.37957187205868176	0.7770440773093917	0.6770686836596733	0.3426369764541531	0.2754580470117813	0.7930071999641306	0.31556021343521773	-0.1508303898777546	0.8950771923393382	0.31493793649543994	-0.14297077442892675	0.6577429036532716	0.3752008511255892	-0.1949101206944772	0.752219783649743	0.28674281485442277	-0.19907686327861165	0.9197274992113951	0.17020109878691447	0.8013434580372678	0.6501823320784599	0.12011559603499622	0.29289419818071494	0.743418256590235	0.07525625345387757	-0.13427320773434814	0.8249694160142159	0.10921932253641352	-0.16963456976487523	0.6930674823753388	0.04050131027684347	-0.14250519797608815	0.6830502741102507	0.07708689379695151	-0.23873751568475846	0.9458187125835057	0.3231224002185529	1.4901005282447592	0.7114295311841894	0.3367973629374306	1.745240559186029	0.6779410570800579	0.3307552102877799	1.629327344595937	0.6419775954194439	0.4902578014125493	1.3601829962248055	0.7296922239192865	0.515451132694417	1.0430524691829344	0.73769413884647	0.48283717208705323	0.7592293314468836	0.6459489005183079	0.3958369019649146	0.6456670473762209	0.6443005496020258	0.42156218715057103	0.6341448515764446	0.6252774555195668	0.47237420193157487	0.6311406199836281	0.6420578205820202	0.16259621964136312	1.3964313396562988	0.7409737377205412	0.07880275324707656	1.0926463561756792	0.7326858395746678	0.09381668013569358	0.8130027528048682	0.6319626142438223	0.15889234261523666	0.7082894310303907	0.6184504293718374	0.12392715779771868	0.6963119297432012	0.5569642192112643	0.06835885726468993	0.6901153904545456	0.6296790391678675	
